<svg xmlns="http://www.w3.org/2000/svg" xmlns:xlink="http://www.w3.org/1999/xlink" version="1.1" enable-background="new 0 0 100 100" xml:space="preserve" width="18.109889747123134" height="18"><rect id="backgroundrect" width="100%" height="100%" x="0" y="0" fill="none" stroke="none" class="" style=""/>

<g class="currentLayer" style=""><title>Layer 1</title><path fill="#30509E" d="M16.226369889080523,4.541542618471398 L9.157181665301323,0.4000000049650808 L2.104395270347595,4.541542618471398 v8.299784995615482 l7.069188223779202,4.158242382109165 l1.771397513151169,-1.0353856533765793 l3.198356620967388,1.0687851905822754 l-1.148128017783165,-2.2878682985901833 l3.2311602786183355,-1.903773620724678 V4.541542618471398 zM9.107976178824902,10.169364637631192 l-1.771397513151169,-1.0353856533765793 l1.771397513151169,-1.0520854219794273 V10.169364637631192 zM9.206387151777744,8.081893562275186 l1.771397513151169,1.0520854219794273 l-1.771397513151169,1.0353856533765793 V8.081893562275186 zM11.043391980230808,6.946309297281518 v2.0874710753560066 l-1.771397513151169,-1.0520854219794273 L11.043391980230808,6.946309297281518 zM9.255592638254166,5.727226189273608 L11.043391980230808,4.6751407672941845 v2.0874710753560066 L9.255592638254166,5.727226189273608 zM11.043391980230808,9.200778058666005 v2.0874710753560066 l-1.771397513151169,-1.0520854219794273 L11.043391980230808,9.200778058666005 zM12.962405952811242,7.898196107643855 l-1.771397513151169,-1.0353856533765793 l1.771397513151169,-1.0353856533765793 V7.898196107643855 zM11.141802953183651,6.946309297281518 l1.771397513151169,1.0353856533765793 l-1.771397513151169,1.0520854219794273 V6.946309297281518 zM11.141802953183651,9.200778058666005 L12.798387664556504,10.18606440623404 l0.11481280177831656,0.0667990744113923 l-1.771397513151169,1.0353856533765793 V9.200778058666005 zM12.962405952811242,10.336362323659673 v2.0874710753560066 l-1.771397513151169,-1.0353856533765793 L12.962405952811242,10.336362323659673 zM11.141802953183651,4.6751407672941845 l1.771397513151169,1.0520854219794273 l-1.771397513151169,1.0520854219794273 V4.6751407672941845 zM9.206387151777744,5.627027577656522 V3.5395565023005147 l1.771397513151169,1.0520854219794273 L9.206387151777744,5.627027577656522 zM9.107976178824902,5.627027577656522 l-1.771397513151169,-1.0353856533765793 l1.771397513151169,-1.0520854219794273 V5.627027577656522 zM7.287373179197312,4.6751407672941845 l1.771397513151169,1.0520854219794273 l-1.771397513151169,1.0520854219794273 V4.6751407672941845 zM7.188962206244469,6.762611842650189 l-1.771397513151169,-1.0520854219794273 L7.188962206244469,4.6751407672941845 V6.762611842650189 zM7.188962206244469,9.200778058666005 v2.0874710753560066 l-1.771397513151169,-1.0353856533765793 L7.188962206244469,9.200778058666005 zM5.351957377791404,8.081893562275186 l1.771397513151169,1.0520854219794273 l-1.771397513151169,1.0353856533765793 V8.081893562275186 zM7.188962206244469,9.033780372637525 l-1.771397513151169,-1.0520854219794273 l1.771397513151169,-1.0353856533765793 V9.033780372637525 zM5.351957377791404,7.898196107643855 V5.8107250322878485 l1.771397513151169,1.0353856533765793 L5.351957377791404,7.898196107643855 zM5.351957377791404,12.423833399015681 V10.336362323659673 l1.771397513151169,1.0520854219794273 L5.466770179569721,12.357034324604287 L5.351957377791404,12.423833399015681 z" id="svg_1" class=""/></g></svg>