<svg version="1.1" id="Layer_1" xmlns="http://www.w3.org/2000/svg" xmlns:xlink="http://www.w3.org/1999/xlink" x="0px" y="0px"
	 viewBox="0 0 100 100" enable-background="new 0 0 100 100" xml:space="preserve">
<path fill="#30509E" d="M92.6,25.2L49.5,0.4L6.5,25.2v49.7l43.1,24.9l10.8-6.2l19.5,6.4l-7-13.7l19.7-11.4V25.2z M49.2,58.9
	l-10.8-6.2l10.8-6.3V58.9z M49.8,46.4l10.8,6.3l-10.8,6.2V46.4z M61,39.6v12.5l-10.8-6.3L61,39.6z M50.1,32.3L61,26v12.5L50.1,32.3z
	 M61,53.1v12.5l-10.8-6.3L61,53.1z M72.7,45.3l-10.8-6.2l10.8-6.2V45.3z M61.6,39.6l10.8,6.2l-10.8,6.3V39.6z M61.6,53.1L71.7,59
	l0.7,0.4l-10.8,6.2V53.1z M72.7,59.9v12.5l-10.8-6.2L72.7,59.9z M61.6,26l10.8,6.3l-10.8,6.3V26z M49.8,31.7V19.2l10.8,6.3
	L49.8,31.7z M49.2,31.7l-10.8-6.2l10.8-6.3V31.7z M38.1,26l10.8,6.3l-10.8,6.3V26z M37.5,38.5l-10.8-6.3L37.5,26V38.5z M37.5,53.1
	v12.5l-10.8-6.2L37.5,53.1z M26.3,46.4l10.8,6.3l-10.8,6.2V46.4z M37.5,52.1l-10.8-6.3l10.8-6.2V52.1z M26.3,45.3V32.8l10.8,6.2
	L26.3,45.3z M26.3,72.4V59.9l10.8,6.3L27,72L26.3,72.4z"/>
</svg>
